

Genre:Comedy
Language:English  http://www.imdb.com/title/tt1572008/
Source:DVD

General
Complete name :A Nanny for Christmas 2010 DvDRip H264 Feel-Free
Format : MPEG-4
Format profile : Base Media
Codec ID : isom
File size : 693 MiB
Duration : 1h 27mn
Overall bit rate : 1 105 Kbps
Video #2
Codec ID : avc1
Codec ID/Info : Advanced Video Coding
Duration : 1h 27mn
Bit rate mode : Variable
Bit rate : 939 Kbps
Width : 720 pixels
Height : 384 pixels
Display aspect ratio : 1.875
Frame rate mode : Constant
Frame rate : 29.970 fps
Original frame rate : 29.000 fps
Resolution : 24 bits
Colorimetry : 4:2:0
Scan type : Progressive
Bits/(Pixel*Frame) : 0.113
Stream size : 589 MiB (85%)
Audio #1
ID : 1
Format : AAC
Format/Info : Advanced Audio Codec
Format version : Version 4
Format profile : LC
Format settings, SBR : No
Codec ID : 40
Duration : 1h 27mn
Bit rate mode : Constant
Bit rate : 160 Kbps
Channel(s) : 2 channels
Channel positions : L R
Sampling rate : 48.0 KHz
Resolution : 16 bits
Stream size : 99.8 MiB (14%)

TRAILER:  http://www.imdb.com/video/screenplay/vi1029806361/

